<svg xmlns="http://www.w3.org/2000/svg" xmlns:xlink="http://www.w3.org/1999/xlink" version="1.1" width="256" height="256" viewBox="0 0 256 256" xml:space="preserve">

<defs>
</defs>
<g style="stroke: none; stroke-width: 0; stroke-dasharray: none; stroke-linecap: butt; stroke-linejoin: miter; stroke-miterlimit: 10; fill: none; fill-rule: nonzero; opacity: 1;" transform="translate(1.4065934065934016 1.4065934065934016) scale(2.81 2.81)" >
	<path d="M 20.046 56.967 c -1.93 0 -3.5 -1.57 -3.5 -3.5 c 0 -1.93 1.57 -3.5 3.5 -3.5 s 3.5 1.57 3.5 3.5 C 23.546 55.396 21.976 56.967 20.046 56.967 z M 20.046 51.967 c -0.827 0 -1.5 0.673 -1.5 1.5 c 0 0.827 0.673 1.5 1.5 1.5 c 0.827 0 1.5 -0.673 1.5 -1.5 C 21.546 52.64 20.873 51.967 20.046 51.967 z" style="stroke: none; stroke-width: 1; stroke-dasharray: none; stroke-linecap: butt; stroke-linejoin: miter; stroke-miterlimit: 10; fill: rgb(0,0,0); fill-rule: nonzero; opacity: 1;" transform=" matrix(1 0 0 1 0 0) " stroke-linecap="round" />
	<path d="M 71.465 56.967 c -1.93 0 -3.5 -1.57 -3.5 -3.5 c 0 -1.93 1.57 -3.5 3.5 -3.5 c 1.93 0 3.5 1.57 3.5 3.5 C 74.964 55.396 73.394 56.967 71.465 56.967 z M 71.465 51.967 c -0.827 0 -1.5 0.673 -1.5 1.5 c 0 0.827 0.673 1.5 1.5 1.5 c 0.827 0 1.5 -0.673 1.5 -1.5 C 72.964 52.64 72.292 51.967 71.465 51.967 z" style="stroke: none; stroke-width: 1; stroke-dasharray: none; stroke-linecap: butt; stroke-linejoin: miter; stroke-miterlimit: 10; fill: rgb(0,0,0); fill-rule: nonzero; opacity: 1;" transform=" matrix(1 0 0 1 0 0) " stroke-linecap="round" />
	<path d="M 89.575 47.697 c -4.252 -6.301 -12.902 -7.368 -21.267 -8.4 l -1.718 -0.214 c -7.328 -3.997 -15.054 -7.747 -22.029 -8.337 c -0.001 0 -0.003 -0.001 -0.004 -0.001 h -0.004 c -0.054 -0.005 -0.109 -0.013 -0.163 -0.017 c -0.044 -0.003 -0.082 0.013 -0.125 0.016 l -8.717 -0.048 c -11.159 -0.151 -19.597 2.163 -23.871 6.492 l -6.406 0.92 c -1.143 0.164 -2.098 0.94 -2.491 2.025 l -2.624 7.226 c -0.232 0.638 -0.205 1.329 0.077 1.948 l 1.296 2.845 c 0.536 1.176 1.671 1.953 2.943 2.027 l 7.689 0.587 c 0.624 3.794 3.917 6.701 7.885 6.701 c 3.695 0 6.804 -2.522 7.719 -5.932 L 63.96 56.21 c 1.123 3.062 4.059 5.256 7.505 5.256 c 3.41 0 6.32 -2.148 7.469 -5.159 l 8.589 -0.644 c 1.412 -0.128 2.477 -1.293 2.477 -2.71 v -3.838 C 89.999 48.598 89.852 48.106 89.575 47.697 z M 87.405 48.142 c -5.124 -0.102 -6.693 -2.367 -7.171 -4.608 C 83.161 44.503 85.646 45.918 87.405 48.142 z M 41.825 39.792 l -2.086 -7.073 l 4.709 0.026 c 5.753 0.501 12.174 3.333 18.443 6.626 C 55.967 39.999 48.932 40.138 41.825 39.792 z M 37.65 32.707 l 2.061 6.987 c -5.461 -0.34 -10.96 -0.963 -16.476 -1.874 c 1.998 -2.524 3.649 -3.646 7.01 -4.982 c 1.685 -0.115 3.446 -0.167 5.285 -0.143 L 37.65 32.707 z M 5.556 40.087 l 2.914 -0.419 c -1.103 2.126 -2.683 3.39 -4.783 3.827 l 0.974 -2.681 C 4.802 40.425 5.145 40.146 5.556 40.087 z M 20.046 59.467 c -3.309 0 -6 -2.691 -6 -6 c 0 -3.309 2.691 -6 6 -6 s 6 2.691 6 6 C 26.046 56.775 23.355 59.467 20.046 59.467 z M 71.465 59.467 c -3.309 0 -6 -2.691 -6 -6 c 0 -3.309 2.691 -6 6 -6 c 3.309 0 6 2.691 6 6 C 77.464 56.775 74.773 59.467 71.465 59.467 z M 87.358 53.67 l -7.934 0.595 c 0.026 -0.263 0.04 -0.529 0.04 -0.798 c 0 -4.411 -3.589 -8 -8 -8 c -4.411 0 -8 3.589 -8 8 c 0 0.248 0.015 0.492 0.037 0.734 l -35.459 -0.662 c 0 -0.024 0.004 -0.048 0.004 -0.073 c 0 -4.411 -3.589 -8 -8 -8 c -4.17 0 -7.601 3.209 -7.964 7.287 l -7.475 -0.57 c -0.548 -0.032 -1.031 -0.362 -1.258 -0.862 l -1.296 -2.845 c -0.063 -0.138 -0.069 -0.292 -0.018 -0.435 l 0.881 -2.426 c 3.709 -0.321 6.359 -2.43 7.89 -6.283 l 1.495 -0.215 c 0.226 -0.032 0.434 -0.141 0.589 -0.308 c 2.352 -2.525 6.482 -4.342 11.865 -5.313 c -1.457 1.093 -2.68 2.453 -4.118 4.45 c -0.201 0.279 -0.245 0.643 -0.115 0.961 c 0.13 0.318 0.415 0.548 0.754 0.607 c 6.575 1.152 13.126 1.894 19.625 2.244 c 0.057 0.01 0.113 0.028 0.172 0.028 c 0.03 0 0.061 -0.01 0.091 -0.013 c 2.748 0.144 5.486 0.224 8.212 0.224 c 5.689 0 11.326 -0.315 16.885 -0.942 l 1.799 0.224 c 3.528 0.435 6.969 0.864 10.051 1.637 c 0.417 3.498 2.544 7.229 9.723 7.229 c 0.053 0 0.111 -0.004 0.164 -0.004 v 2.81 C 87.999 53.328 87.717 53.638 87.358 53.67 z" style="stroke: none; stroke-width: 1; stroke-dasharray: none; stroke-linecap: butt; stroke-linejoin: miter; stroke-miterlimit: 10; fill: rgb(0,0,0); fill-rule: nonzero; opacity: 1;" transform=" matrix(1 0 0 1 0 0) " stroke-linecap="round" />
</g>
</svg>